<svg xmlns="http://www.w3.org/2000/svg" width="512" height="105.6" fill="none" viewBox="0 0 512 105.6"><path fill="#3D3D3D" d="M504.826 33.946c-4.66-5.116-10.775-7.965-17.332-7.965H472.836c-2.311.08-4.094 1.886-4.094 4.154v50.196h18.756c6.53 0 12.672-2.82 17.33-7.993 4.647-5.14 7.172-11.937 7.172-19.17 0-7.28-2.525-14.078-7.174-19.222zm-8.564 29.61c-2.176 3.568-5.302 4.82-8.537 4.82h-6.247V37.956h6.247c8.198 0 11.155 8.25 11.155 15.212 0 4.217-1.206 8.04-2.618 10.389zM196.047 93.676s26.612-65.898 27.34-67.693h-10.233c-3.737 0-5.6 2.794-6.012 4.06L195.893 57.13l-10.971-27.088c-.906-2.437-3.134-4.06-5.695-4.06H168.25c.728 1.782 20.434 50.117 20.434 50.117s-11.07 27.702-11.819 29.5l2.839-.053c7.578-.591 12.779-3.533 16.343-11.871zM149.217 23.87c-17.32 0-30.857 12.158-30.857 29.794 0 16.585 13.657 28.636 30.01 28.636 4.714 0 9.407-.92 13.735-3.078V65.587c-2.58 2.321-6.327 3.583-9.799 3.583-9.016 0-18.3-4.594-18.3-16.18 0-9.958 8.433-15.9 17.523-15.9 1.129 0 2.837.284 2.837.284.416.09.94.118 1.412.161 3.815.074 6.327-3.952 6.327-7v-3.254c-3.916-2.156-8.387-3.412-12.888-3.412zM429.715 80.312h-.115c-3.066 0-5.597-2.486-5.597-5.548l-.029-48.783h9.293c2.304 0 4.135 1.886 4.135 4.154V68.94h20.4c1.913 0 3.481 1.59 3.481 3.515v7.748zM362.134 52.928c0 16.269-13.276 29.468-29.69 29.468-16.395 0-29.664-13.197-29.664-29.468 0-16.358 13.27-29.516 29.665-29.516 16.413 0 29.69 13.158 29.69 29.516zm-29.69-15.737c-8.697 0-15.8 7.073-15.8 15.737 0 8.656 7.103 15.68 15.8 15.68 8.673 0 15.783-7.024 15.783-15.68-.003-8.664-7.11-15.737-15.782-15.737zM265.59 25.983c.277.846 11.303 28.983 11.303 28.983l.599-1.596 8.942-23.048c.807-1.82 3.559-4.34 6.065-4.34h10.278c-1.383 3.271-1.004 2.495-21.253 51.823-.014 0-.014.02-.014.02v.026c-.703 1.432-2.135 2.461-3.825 2.461h-4.668c-.11-.393-.747-1.753-10.166-24.245 0 0-9.818 23.473-10.162 24.245h-4.627a4.136 4.136 0 0 1-3.793-2.461v-.027c-.032-.019-.032-.019-.043-.136l-18.306-45.08c-.179-.521-.318-1.114-.318-1.734 0-2.692 2.224-4.89 4.857-4.89h6.957c1.782 4.469 12.248 30.404 12.248 30.404l6.694-17.48s-1.094-3.141-1.396-4.139c-.304-1.073-.5-2.16-.5-2.958 0-3.657 2.736-5.828 5.714-5.828zM405.898 61l.176-.089c2.86-2.257 5.123-5.257 6.406-8.77 0-.12.09-.218.118-.337.112-.314.234-.525.292-.831.118-.473.214-.88.316-1.364.052-.138.09-.285.103-.35.07-.585.201-1.156.278-1.768v-.08c.064-.59.064-1.21.064-1.811v-.126c0-10.723-8.749-19.494-19.577-19.494h-19.63c-2.284 0-4.16 1.885-4.16 4.154V80.33h8.75c2.313 0 4.115-1.822 4.115-4.157v-12.08h10.256s5.488 9.511 6.56 11.253c1.702 2.722 4.736 4.984 8.182 4.984h9.03C416.07 78.56 405.898 61 405.898 61Zm-12.637-8.609h-10.112V37.866h10.112c4.022 0 7.293 3.244 7.293 7.24 0 3.998-3.27 7.257-7.293 7.257z"/><path fill="#F37124" d="M98.965 49.141c0 27.192-22.152 49.257-49.453 49.257C22.177 98.398 0 76.333 0 49.141 0 21.987 22.177 0 49.512 0c27.303 0 49.453 21.99 49.453 49.141ZM49.512 22.99c-14.585 0-26.376 11.74-26.376 26.152 0 14.51 11.79 26.19 26.376 26.19 14.519 0 26.292-11.68 26.292-26.19 0-14.411-11.773-26.152-26.292-26.152z"/><path fill="#F37124" d="M32.133 36.466v6.616c0 1.127.888 2.02 2.072 2.02 1.085 0 1.98-.895 1.98-2.02v-6.616c0-1.122-.895-2.048-1.98-2.048a2.04 2.04 0 0 0-2.072 2.048zM62.357 36.466v6.616c0 1.127.965 2.02 2.067 2.02 1.165 0 2.066-.895 2.066-2.02v-6.616a2.048 2.048 0 0 0-2.066-2.048c-1.102 0-2.067.926-2.067 2.048zM56.246 51.492c0 4.126-3.343 7.422-7.462 7.422a7.41 7.41 0 0 1-7.428-7.422c0-1.094-.93-2.02-2.05-2.02-1.167 0-2.07.926-2.07 2.02 0 6.292 5.198 11.484 11.548 11.484 6.38 0 11.541-5.192 11.541-11.484 0-1.094-.915-2.02-2.074-2.02a2.006 2.006 0 0 0-2.005 2.02z"/><path fill="#F37124" d="m47.908 37.287-4.723 4.721c-.37.355-.574.87-.574 1.422 0 .552.201 1.058.574 1.451l4.723 4.69c.808.825 2.081.825 2.917 0 .37-.401.574-.9.574-1.42 0-.504-.203-1.078-.574-1.449 0 0-1.902-1.88-3.28-3.272 1.378-1.382 3.28-3.243 3.28-3.243.37-.414.574-.962.574-1.463 0-.542-.203-1.01-.574-1.437a2.136 2.136 0 0 0-2.917 0z"/></svg>